<svg width="16" height="16" viewBox="0 0 16 16" fill="none" xmlns="http://www.w3.org/2000/svg">
<g clip-path="url(#clip0_6630_75697)">
<path d="M1.5 8.5L15.5 8.5C15.7761 8.5 16 8.27614 16 8C16 7.72386 15.7761 7.5 15.5 7.5L1.5 7.5C1.22386 7.5 1 7.72386 1 8C1 8.27614 1.22386 8.5 1.5 8.5Z" fill="currentColor"/>
<path fill-rule="evenodd" clip-rule="evenodd" d="M0.686891 7.28256L-0.0202093 7.98967L-0.0202093 7.98972L0.686891 8.69683L0.686891 8.69678L5.63669 13.6465C5.83199 13.8418 6.14853 13.8418 6.34379 13.6465C6.53905 13.4513 6.53905 13.1347 6.34379 12.9394L1.39409 7.98967L6.34374 3.03993C6.539 2.84473 6.539 2.52813 6.34374 2.33283C6.14848 2.13763 5.83189 2.13763 5.63659 2.33283L0.686891 7.28256Z" fill="currentColor"/>
</g>
<defs>
<clipPath id="clip0_6630_75697">
<rect width="16" height="16" fill="white" transform="translate(16 16) rotate(-180)"/>
</clipPath>
</defs>
</svg>
