<svg width="16" height="16" viewBox="0 0 16 16" fill="none" xmlns="http://www.w3.org/2000/svg">
<path d="M2.34151 12.953C2.14625 13.1483 2.14625 13.4649 2.34151 13.6602C2.53678 13.8554 2.85336 13.8554 3.04862 13.6602L7.99845 8.71032L12.9483 13.6602C13.1435 13.8554 13.4601 13.8554 13.6554 13.6602C13.8507 13.4649 13.8507 13.1483 13.6554 12.953L8.70556 8.00321L13.6552 3.05355C13.8505 2.85829 13.8505 2.54171 13.6552 2.34644C13.46 2.15118 13.1434 2.15118 12.9481 2.34644L7.99845 7.29611L3.04879 2.34644C2.85353 2.15118 2.53695 2.15118 2.34168 2.34644C2.14642 2.54171 2.14642 2.85829 2.34168 3.05355L7.29135 8.00321L2.34151 12.953Z" fill="currentColor"/>
</svg>
