<svg fill="none" height="57" viewBox="0 0 57 57" width="57" xmlns="http://www.w3.org/2000/svg"><g fill="#000"><path d="m19.95 24.225c1.1805 0 2.1375-.957 2.1375-2.1375 0-1.1806-.957-2.1375-2.1375-2.1375s-2.1375.9569-2.1375 2.1375c0 1.1805.957 2.1375 2.1375 2.1375z"/><path d="m37.0496 24.225c1.1805 0 2.1375-.957 2.1375-2.1375 0-1.1806-.957-2.1375-2.1375-2.1375s-2.1375.9569-2.1375 2.1375c0 1.1805.957 2.1375 2.1375 2.1375z"/><path d="m19.95 30.6375c1.1805 0 2.1375-.9569 2.1375-2.1375 0-1.1805-.957-2.1375-2.1375-2.1375s-2.1375.957-2.1375 2.1375c0 1.1806.957 2.1375 2.1375 2.1375z"/><path d="m37.0496 30.6375c1.1805 0 2.1375-.9569 2.1375-2.1375 0-1.1805-.957-2.1375-2.1375-2.1375s-2.1375.957-2.1375 2.1375c0 1.1806.957 2.1375 2.1375 2.1375z"/><path d="m28.5004 41.3251c-6.7331 0-11.2219-4.3819-11.4356-4.5956-.4275-.4275-.4275-1.0688 0-1.4963s1.0687-.4275 1.4962 0c0 0 4.0613 3.9544 9.9394 3.9544s9.9394-3.9544 9.9394-3.9544c.4275-.4275 1.0687-.4275 1.4962 0s.4275 1.0688 0 1.4963c-.2137.2137-4.7025 4.5956-11.4356 4.5956z"/><path d="m28.5 7.125c-11.7562 0-21.375 9.6188-21.375 21.375 0 11.7563 9.6188 21.375 21.375 21.375 11.7563 0 21.375-9.6187 21.375-21.375 0-11.7562-9.6187-21.375-21.375-21.375zm0 40.6125c-10.5806 0-19.2375-8.6569-19.2375-19.2375s8.6569-19.2375 19.2375-19.2375 19.2375 8.6569 19.2375 19.2375-8.6569 19.2375-19.2375 19.2375z"/></g></svg>