<svg width="24" height="24" viewBox="0 0 24 24" fill="none" xmlns="http://www.w3.org/2000/svg">
<path d="M15.3943 4.60912C15.9994 3.68501 17.1844 4.29177 17.3435 5.38482C17.834 8.75354 17.635 13.2934 15.0001 13.9994C14.3202 11.4622 13.9319 6.84267 15.3943 4.60912Z" fill="#C0EFE3"/>
<path d="M15.0001 13.9994C15.704 16.6266 12.0527 18.7917 8.95147 19.9575C7.91754 20.3462 6.78431 19.6155 7.29343 18.6352C8.46562 16.3783 12.4791 14.6749 15.0001 13.9994Z" fill="#C0EFE3"/>
<path d="M3.80535 15.0138C2.77192 14.6238 2.77192 13.3751 3.80535 12.9851C7.13664 11.7279 13.0667 12.066 15.0001 13.9994C13.0667 15.9328 7.13664 16.2709 3.80535 15.0138Z" fill="#C0EFE3"/>
<path d="M15.0001 13.9994C16.77 12.2295 18.4655 10.6554 20.199 11.0009C21.2823 11.2169 21.2808 12.6501 20.4522 13.3805C18.6303 14.9865 16.8561 15.8554 15.0001 13.9994Z" fill="#C0EFE3"/>
<path d="M18.3307 19.0305C18.2668 20.1332 17.0759 20.8206 16.2162 20.127C14.5806 18.8072 14.3351 16.4811 15.0001 13.9994C17.5272 14.6766 18.4686 16.6531 18.3307 19.0305Z" fill="#C0EFE3"/>
<path d="M15.0001 13.9994C12.3687 13.2943 8.11111 8.766 7.15598 5.3987C6.85456 4.33606 7.91782 3.68876 8.83615 4.30256C11.9613 6.39136 15.7128 11.3396 15.0001 13.9994Z" fill="#C0EFE3"/>
<path fill-rule="evenodd" clip-rule="evenodd" d="M6.19393 5.6716C6.72116 7.53032 8.09349 9.59371 9.62031 11.2726C7.48596 11.15 5.18907 11.3941 3.45228 12.0495C2.58143 12.3781 2.03027 13.1373 2.03027 13.9994C2.03027 14.8615 2.58143 15.6207 3.45228 15.9494C4.62365 16.3914 6.04979 16.6463 7.509 16.7278C7.05929 17.169 6.6777 17.6512 6.40599 18.1743C6.18118 18.6072 6.10415 19.0873 6.22301 19.5559C6.33962 20.0156 6.62136 20.3726 6.95131 20.6153C7.59452 21.0884 8.49603 21.1971 9.30335 20.8936C10.8568 20.3096 12.6044 19.4625 13.9269 18.3903C14.2132 19.3552 14.7434 20.2236 15.5883 20.9052C16.3612 21.5289 17.3137 21.528 18.0468 21.1324C18.7596 20.7477 19.2766 19.9924 19.3291 19.0884C19.3975 17.9071 19.2322 16.7422 18.7233 15.7265C19.5918 15.3725 20.392 14.7666 21.1135 14.1306C21.7582 13.5623 22.0925 12.7209 22.0404 11.9319C21.985 11.0924 21.4609 10.2328 20.3945 10.0203C19.7057 9.88294 19.0499 9.96488 18.4387 10.1738C18.6477 8.55174 18.5547 6.76243 18.3331 5.24075C18.2085 4.38467 17.6743 3.6496 16.9397 3.3256C16.5636 3.15968 16.1146 3.09629 15.6605 3.22426C15.1992 3.35428 14.8228 3.65642 14.5577 4.06135C13.9514 4.9873 13.6332 6.18336 13.4905 7.41734C12.2819 5.85284 10.795 4.40906 9.39183 3.47118C8.64213 2.97009 7.71733 2.92359 7.0023 3.37799C6.25705 3.8516 5.93221 4.7489 6.19393 5.6716ZM15.3943 4.60913C14.7312 5.62195 14.4486 7.12538 14.4012 8.7028C14.3878 9.14665 14.3931 9.59637 14.4138 10.0427C14.6051 10.0146 14.8009 10 15 10C15.8703 10 16.6757 10.2779 17.3322 10.7499C17.3359 10.7315 17.3395 10.713 17.3431 10.6946C17.6618 9.04949 17.589 7.07054 17.3435 5.38483C17.1844 4.29178 15.9994 3.68503 15.3943 4.60913ZM17.0455 11.8055C16.988 11.9667 16.9249 12.122 16.8561 12.2704C16.9781 12.1707 17.0999 12.0749 17.2215 11.9838C17.7052 12.5165 18 13.2238 18 14C18 14.3377 17.9442 14.6623 17.8413 14.9653C17.5531 15.035 17.2644 15.0615 16.9749 15.0369C17.1772 15.2225 17.3553 15.4253 17.5104 15.6432C16.9744 16.4603 16.0502 17 15 17C14.8918 17 14.785 16.9943 14.6797 16.9831C14.6558 16.6988 14.6505 16.406 14.6626 16.1065C14.5096 16.3663 14.3193 16.6185 14.0988 16.8623C12.8823 16.4797 12 15.3429 12 14C12 13.525 12.1104 13.0758 12.3069 12.6766C12.4617 12.7163 12.6131 12.7586 12.7607 12.8036C12.6377 12.7125 12.5143 12.6176 12.3905 12.519C12.9064 11.6118 13.8818 11 15 11C15.7905 11 16.5096 11.3058 17.0455 11.8055ZM11.6192 11.8612C11.4658 11.7218 11.3128 11.5777 11.1609 11.4296C9.35767 9.67109 7.70709 7.34164 7.15598 5.39872C6.85456 4.33607 7.91782 3.68878 8.83615 4.30257C10.4146 5.3576 12.1529 7.14212 13.395 8.99279C13.6437 9.36338 13.8726 9.73663 14.0762 10.1072C13.0461 10.3507 12.1699 10.9926 11.6192 11.8612ZM11.305 12.4652C11.1075 12.4316 10.9065 12.4018 10.7029 12.3757C8.36234 12.0765 5.67469 12.2796 3.80535 12.9851C2.77192 13.3751 2.77192 14.6238 3.80535 15.0138C5.15245 15.5221 6.9245 15.7696 8.68539 15.7563C9.42814 15.7506 10.1689 15.6986 10.8749 15.6001C10.2121 15.9453 9.5772 16.3306 9.01889 16.7509C8.26351 17.3195 7.64828 17.952 7.29343 18.6352C6.78431 19.6155 7.91754 20.3462 8.95147 19.9575C10.4553 19.3922 12.0885 18.5919 13.2917 17.6179C11.9371 16.9771 11 15.598 11 14C11 13.4562 11.1085 12.9378 11.305 12.4652ZM14.8562 17.9975C15.0885 18.8425 15.53 19.5733 16.2162 20.127C17.0759 20.8206 18.2668 20.1332 18.3307 19.0305C18.3813 18.1586 18.2867 17.3406 18.0219 16.6208C17.2885 17.4657 16.2066 18 15 18C14.9519 18 14.904 17.9991 14.8562 17.9975ZM18.9704 14.4892C19.4625 14.2012 19.9556 13.8182 20.4522 13.3805C21.2808 12.6501 21.2823 11.2169 20.199 11.001C19.5369 10.869 18.8803 11.017 18.223 11.3491C18.1709 11.3755 18.1187 11.403 18.0666 11.4316C18.6492 12.1264 19 13.0223 19 14C19 14.1656 18.9899 14.3289 18.9704 14.4892Z" fill="#147D6F"/>
<path d="M18 14C18 15.6569 16.6569 17 15 17C13.3431 17 12 15.6569 12 14C12 12.3431 13.3431 11 15 11C16.6569 11 18 12.3431 18 14Z" fill="white"/>
</svg>
