<svg width="24" height="24" viewBox="0 0 24 24" fill="none" xmlns="http://www.w3.org/2000/svg">
<path d="M15.0949 4.16104C16.0406 3.59031 17.2431 4.29007 17.2958 5.39338C17.3866 7.29427 16.4588 8.3412 14 9.00002C13.3458 6.55828 13.5434 5.09736 15.0949 4.16104Z" fill="#D7F2B0"/>
<path d="M14 9.00002C14.711 11.6534 11.6668 17.2708 8.78134 19.6033C7.92233 20.2977 6.85371 19.6759 7.05811 18.5904C7.73788 14.9804 11.3507 9.70992 14 9.00002Z" fill="#D7F2B0"/>
<path d="M3.89594 12.7975C2.80173 12.6466 2.74506 11.3716 3.67409 10.7741C6.76034 8.78918 12.0562 7.05617 14 9.00002C12.102 10.8981 7.00815 13.2267 3.89594 12.7975Z" fill="#D7F2B0"/>
<path d="M14 9.00002C15.8911 7.10901 18.3485 8.69768 20.4581 10.6128C21.2759 11.3553 21.2374 12.7717 20.1352 12.8435C18.1011 12.9759 15.7953 10.7953 14 9.00002Z" fill="#D7F2B0"/>
<path d="M17.2557 18.6007C17.1742 19.7023 16.0301 20.2927 15.3731 19.4047C13.5686 16.9658 13.3085 11.5808 14 9.00002C16.6519 9.7106 17.5227 14.9904 17.2557 18.6007Z" fill="#D7F2B0"/>
<path d="M14 9.00002C11.5313 8.33852 8.22589 7.28575 7.23666 5.37014C6.72984 4.38871 7.91883 3.64574 8.96845 3.98977C11.7965 4.91671 14.6956 6.40403 14 9.00002Z" fill="#D7F2B0"/>
<path fill-rule="evenodd" clip-rule="evenodd" d="M13.8798 5.49328C13.7229 5.86791 13.6487 6.29226 13.6475 6.77497C13.4163 6.42604 13.1066 6.10761 12.7403 5.81641C11.752 5.03067 10.3517 4.44318 8.96833 3.98977C7.9187 3.64574 6.72971 4.38871 7.23653 5.37014C7.64947 6.16978 8.46601 6.81908 9.45681 7.35232C10.017 7.65379 10.6328 7.91817 11.2629 8.15165C10.65 8.16382 9.98995 8.25373 9.31197 8.40339C7.34603 8.83735 5.22938 9.77372 3.67396 10.7741C2.74494 11.3716 2.8016 12.6466 3.89582 12.7975C5.38713 13.0032 7.33345 12.5756 9.16513 11.8656C9.89459 11.5828 10.6059 11.2553 11.263 10.9051C10.7607 11.4321 10.2675 12.0376 9.8044 12.6879C8.47864 14.5495 7.39908 16.779 7.05799 18.5904C6.85359 19.6759 7.9222 20.2977 8.78121 19.6033C10.2329 18.4298 11.7248 16.4248 12.7584 14.3842C13.1168 13.6767 13.4201 12.9649 13.6475 12.2819C13.6484 13.0231 13.6928 13.7983 13.7851 14.5651C14.0097 16.432 14.5179 18.2491 15.373 19.4047C16.03 20.2927 17.1741 19.7023 17.2555 18.6007C17.39 16.7836 17.2361 14.5436 16.7121 12.6761C16.5308 12.0302 16.3053 11.4289 16.0321 10.9051C16.5326 11.3276 17.0473 11.7172 17.5648 12.0349C18.4313 12.567 19.3058 12.8974 20.135 12.8435C21.2373 12.7717 21.2758 11.3553 20.458 10.6128C19.4395 9.68824 18.34 8.83975 17.2622 8.42215C16.847 8.26126 16.435 8.16432 16.0321 8.15165C16.41 7.8958 16.6967 7.60286 16.9011 7.26467C17.2101 6.75361 17.3313 6.13923 17.2957 5.39338C17.243 4.29006 16.0405 3.59031 15.0948 4.16104C14.5006 4.51963 14.105 4.95517 13.8798 5.49328ZM13.0891 4.82689C11.9882 4.03443 10.5773 3.4648 9.27979 3.03951C8.46594 2.77276 7.56898 2.91007 6.93075 3.37406C6.6028 3.61247 6.31118 3.96333 6.18268 4.4226C6.05037 4.89552 6.11894 5.3854 6.34801 5.82898C6.73617 6.58063 7.36462 7.18939 8.08454 7.68706C6.30656 8.20622 4.51501 9.0442 3.13303 9.933C2.39245 10.4093 1.96037 11.2161 2.02972 12.0374C2.10504 12.9293 2.76238 13.6507 3.7592 13.7881C5.11088 13.9745 6.70263 13.7163 8.23493 13.2467C7.20116 14.9236 6.38055 16.7841 6.07526 18.4054C5.903 19.3202 6.26564 20.1882 7.01557 20.6273C7.76106 21.0638 8.69215 20.9611 9.40986 20.381C10.7067 19.3326 11.9892 17.7245 13.0018 16.0167C13.2954 17.5085 13.7927 18.9502 14.5691 19.9995C14.8509 20.3804 15.2307 20.6591 15.6809 20.7763C16.1275 20.8926 16.5712 20.8309 16.9485 20.657C17.692 20.3145 18.1882 19.5481 18.2528 18.6745C18.3725 17.0569 18.2772 15.1203 17.906 13.3531C18.6323 13.6872 19.4081 13.8929 20.2 13.8414C20.7012 13.8087 21.1559 13.6122 21.4927 13.2555C21.819 12.9098 21.9717 12.481 22.0116 12.0783C22.0893 11.2943 21.7635 10.4475 21.1301 9.87243C20.1633 8.99469 19.0393 8.10111 17.8655 7.58942C18.2153 6.91861 18.3334 6.16027 18.2945 5.3457C18.2091 3.55482 16.2303 2.30781 14.5781 3.30487C13.9142 3.70557 13.4138 4.20901 13.0891 4.82689Z" fill="#5D770D"/>
<path fill-rule="evenodd" clip-rule="evenodd" d="M14 12C15.6569 12 17 10.6569 17 9C17 7.34315 15.6569 6 14 6C12.3431 6 11 7.34315 11 9C11 10.6569 12.3431 12 14 12ZM14 13C16.2091 13 18 11.2091 18 9C18 6.79086 16.2091 5 14 5C11.7909 5 10 6.79086 10 9C10 11.2091 11.7909 13 14 13Z" fill="#5D770D"/>
<path d="M17 9C17 10.6569 15.6569 12 14 12C12.3431 12 11 10.6569 11 9C11 7.34315 12.3431 6 14 6C15.6569 6 17 7.34315 17 9Z" fill="white"/>
</svg>
