<svg width="24" height="24" viewBox="0 0 24 24" fill="none" xmlns="http://www.w3.org/2000/svg">
<path d="M15.1402 4.26034C16.0683 3.66144 17.1927 4.32486 16.9787 5.40849C16.4182 8.24639 13.5776 11.3087 11 11.9994C10.303 9.39813 12.5543 5.92899 15.1402 4.26034Z" fill="#FDD8D3"/>
<path d="M11 11.9994C11.6831 14.5488 10.8027 17.9317 8.79879 19.6365C7.95746 20.3522 6.80143 19.6965 6.82282 18.5921C6.87779 15.7537 8.42186 12.6902 11 11.9994Z" fill="#FDD8D3"/>
<path d="M3.73188 13.139C2.7326 12.6683 2.7326 11.3305 3.73188 10.8598C6.0811 9.75334 9.13382 10.1332 11 11.9994C9.13382 13.8656 6.0811 14.2455 3.73188 13.139Z" fill="#FDD8D3"/>
<path d="M11 11.9994C12.9039 10.0955 17.3626 9.7386 20.2244 10.9287C21.2443 11.3528 21.2443 12.646 20.2244 13.0701C17.3626 14.2602 12.9039 13.9033 11 11.9994Z" fill="#FDD8D3"/>
<path d="M16.9785 18.5903C17.1925 19.674 16.0682 20.3374 15.1401 19.7385C12.5542 18.0698 10.303 14.6007 11 11.9994C13.5776 12.6901 16.4181 15.7524 16.9785 18.5903Z" fill="#FDD8D3"/>
<path d="M11 11.9994C8.42186 11.3086 6.87768 8.24508 6.82267 5.40668C6.80127 4.30232 7.95729 3.64665 8.79863 4.36234C10.8026 6.06706 11.6831 9.45001 11 11.9994Z" fill="#FDD8D3"/>
<path fill-rule="evenodd" clip-rule="evenodd" d="M11.8946 7.68409C12.6934 6.32053 13.8769 5.07556 15.1402 4.26034C16.0683 3.66144 17.1927 4.32485 16.9787 5.40849C16.7116 6.76102 15.9265 8.16453 14.8989 9.33797C14.486 9.80941 14.034 10.2437 13.5607 10.6227C14.1372 10.4598 14.7539 10.3491 15.3849 10.2908C17.0571 10.1363 18.8302 10.3489 20.2244 10.9287C21.2443 11.3528 21.2443 12.646 20.2244 13.0701C18.8302 13.6499 17.057 13.8625 15.3849 13.708C14.7538 13.6497 14.1371 13.539 13.5606 13.3761C14.034 13.7551 14.486 14.1894 14.8988 14.6608C15.9264 15.8343 16.7114 17.2378 16.9785 18.5903C17.1925 19.674 16.0682 20.3374 15.1401 19.7385C13.8768 18.9233 12.6934 17.6784 11.8946 16.3149C11.5961 15.8054 11.3513 15.2793 11.1761 14.7529C11.1124 15.3209 10.9916 15.8885 10.8171 16.4354C10.4148 17.6962 9.72742 18.8465 8.79879 19.6365C7.95746 20.3522 6.80143 19.6965 6.82282 18.5921C6.84915 17.2326 7.21711 15.8214 7.87671 14.6441C8.1372 14.1791 8.44318 13.7506 8.79156 13.3761C8.30035 13.5503 7.78693 13.6647 7.26655 13.7193C6.06272 13.8457 4.82161 13.6522 3.73188 13.139C2.7326 12.6683 2.7326 11.3305 3.73188 10.8598C4.82159 10.3466 6.06268 10.1531 7.26649 10.2795C7.78688 10.3341 8.3003 10.4485 8.79152 10.6227C8.44313 10.2482 8.13714 9.81971 7.87663 9.35474C7.21701 8.17739 6.84902 6.76621 6.82267 5.40668C6.80126 4.30232 7.95729 3.64665 8.79863 4.36234C9.72732 5.15234 10.4147 6.30275 10.8171 7.56359C10.9916 8.11042 11.1124 8.67803 11.1761 9.24601C11.3513 8.71963 11.5961 8.19358 11.8946 7.68409ZM6.69851 9.24395C6.14833 8.05429 5.84791 6.71866 5.82286 5.42606C5.80504 4.50677 6.28455 3.71692 7.01008 3.32311C7.7544 2.9191 8.70225 2.96749 9.44657 3.60065C10.3388 4.35961 11.0178 5.37352 11.4808 6.47552C12.3215 5.26217 13.4216 4.17922 14.598 3.42009C15.3718 2.92079 16.2984 2.91555 17.0094 3.3503C17.7383 3.79597 18.1476 4.65126 17.9597 5.60225C17.7089 6.87205 17.0789 8.13521 16.2584 9.24352C17.7701 9.22082 19.3146 9.46732 20.6084 10.0053C21.4782 10.3671 21.9893 11.1522 21.9893 11.9994C21.9893 12.8466 21.4782 13.6317 20.6084 13.9935C19.3146 14.5315 17.7701 14.778 16.2583 14.7553C17.0788 15.8636 17.7088 17.1268 17.9596 18.3966C18.1474 19.3476 17.7381 20.2029 17.0092 20.6485C16.2982 21.0833 15.3716 21.078 14.5978 20.5787C13.4215 19.8196 12.3215 18.7367 11.4808 17.5234C11.0179 18.6254 10.3389 19.6392 9.44674 20.3982C8.70242 21.0313 7.75456 21.0797 7.01024 20.6757C6.28471 20.2819 5.8052 19.4921 5.823 18.5728C5.84804 17.2802 6.14843 15.9445 6.69859 14.7549C5.52708 14.7765 4.35388 14.5373 3.30578 14.0437C1.5413 13.2126 1.5413 10.7862 3.30578 9.95515C4.35385 9.46151 5.52703 9.22235 6.69851 9.24395Z" fill="#CA3214"/>
<path fill-rule="evenodd" clip-rule="evenodd" d="M11 15C12.6569 15 14 13.6569 14 12C14 10.3431 12.6569 9 11 9C9.34315 9 8 10.3431 8 12C8 13.6569 9.34315 15 11 15ZM11 16C13.2091 16 15 14.2091 15 12C15 9.79086 13.2091 8 11 8C8.79086 8 7 9.79086 7 12C7 14.2091 8.79086 16 11 16Z" fill="#CA3214"/>
<path d="M14 12C14 13.6569 12.6569 15 11 15C9.34315 15 8 13.6569 8 12C8 10.3431 9.34315 9 11 9C12.6569 9 14 10.3431 14 12Z" fill="white"/>
</svg>
