<svg width="24" height="24" viewBox="0 0 24 24" fill="none" xmlns="http://www.w3.org/2000/svg">
<path d="M10 12C10 10.8954 10.8954 10 12 10C13.1046 10 14 10.8954 14 12V17C14 18.1046 13.1046 19 12 19C10.8954 19 10 18.1046 10 17V12Z" fill="#E4E2E4"/>
<path d="M14 7C14 8.10457 13.1046 9 12 9C10.8954 9 10 8.10457 10 7C10 5.89543 10.8954 5 12 5C13.1046 5 14 5.89543 14 7Z" fill="#E4E2E4"/>
<path fill-rule="evenodd" clip-rule="evenodd" d="M13 17V12C13 11.4477 12.5523 11 12 11C11.4477 11 11 11.4477 11 12V17C11 17.5523 11.4477 18 12 18C12.5523 18 13 17.5523 13 17ZM12 10C10.8954 10 10 10.8954 10 12V17C10 18.1046 10.8954 19 12 19C13.1046 19 14 18.1046 14 17V12C14 10.8954 13.1046 10 12 10Z" fill="currentColor"/>
<path fill-rule="evenodd" clip-rule="evenodd" d="M12 21C16.9706 21 21 16.9706 21 12C21 7.02944 16.9706 3 12 3C7.02944 3 3 7.02944 3 12C3 16.9706 7.02944 21 12 21ZM12 22C17.5228 22 22 17.5228 22 12C22 6.47715 17.5228 2 12 2C6.47715 2 2 6.47715 2 12C2 17.5228 6.47715 22 12 22Z" fill="currentColor"/>
<path fill-rule="evenodd" clip-rule="evenodd" d="M12 8.99998C13.1046 8.99998 14 8.10455 14 6.99998C14 5.89541 13.1046 4.99998 12 4.99998C10.8954 4.99998 10 5.89541 10 6.99998C10 8.10455 10.8954 8.99998 12 8.99998ZM12 7.99998C12.5523 7.99998 13 7.55226 13 6.99998C13 6.44769 12.5523 5.99998 12 5.99998C11.4477 5.99998 11 6.44769 11 6.99998C11 7.55226 11.4477 7.99998 12 7.99998Z" fill="currentColor"/>
</svg>
