<svg width="24" height="24" viewBox="0 0 24 24" fill="none" xmlns="http://www.w3.org/2000/svg">
<path d="M12 5.67363C12.9093 5.24169 13.9264 5 15 5C18.866 5 22 8.13401 22 12C22 15.866 18.866 19 15 19C13.9264 19 12.9093 18.7583 12 18.3264C14.3649 17.2029 16 14.7924 16 12C16 9.2076 14.3649 6.79709 12 5.67363Z" fill="#E4E2E4"/>
<path fill-rule="evenodd" clip-rule="evenodd" d="M12 5.67363C12.9093 5.24169 13.9264 5 15 5C18.866 5 22 8.13401 22 12C22 15.866 18.866 19 15 19C13.9264 19 12.9093 18.7583 12 18.3264C11.0907 18.7583 10.0736 19 9 19C5.13401 19 2 15.866 2 12C2 8.13401 5.13401 5 9 5C10.0736 5 11.0907 5.24169 12 5.67363ZM13.0823 6.31299C13.6845 6.11002 14.3294 6 15 6C18.3137 6 21 8.68629 21 12C21 15.3137 18.3137 18 15 18C14.3294 18 13.6845 17.89 13.0823 17.687C14.8493 16.4164 16 14.3426 16 12C16 9.65744 14.8493 7.58364 13.0823 6.31299ZM12 6.80269C13.7934 7.84012 15 9.77915 15 12C15 14.2208 13.7934 16.1599 12 17.1973C10.2066 16.1599 9 14.2208 9 12C9 9.77915 10.2066 7.84012 12 6.80269ZM10.9177 17.687C10.3155 17.89 9.67061 18 9 18C5.68629 18 3 15.3137 3 12C3 8.68629 5.68629 6 9 6C9.67061 6 10.3155 6.11002 10.9177 6.31299C9.15069 7.58364 8 9.65744 8 12C8 14.3426 9.15069 16.4164 10.9177 17.687Z" fill="currentColor"/>
</svg>