<svg width="24" height="24" viewBox="0 0 24 24" fill="none" xmlns="http://www.w3.org/2000/svg">
<path d="M0 0H24V24H0V0Z" fill="white"/>
<path d="M11.0617 2.54493C11.3833 1.67282 12.6167 1.67282 12.9383 2.54493L14.4122 6.54277C14.579 6.99516 15.0448 7.26412 15.52 7.18237L19.7192 6.4599C20.6352 6.30229 21.252 7.37051 20.6574 8.08502L17.9322 11.3604C17.6238 11.731 17.6238 12.2689 17.9322 12.6396L20.6575 15.915C21.252 16.6295 20.6352 17.6977 19.7192 17.5401L15.52 16.8176C15.0448 16.7358 14.579 17.0048 14.4122 17.4572L12.9383 21.455C12.6167 22.3272 11.3833 22.3271 11.0617 21.455L9.58782 17.4572C9.42103 17.0048 8.95518 16.7358 8.48 16.8176L4.28081 17.5401C3.36478 17.6977 2.74804 16.6295 3.34255 15.915L6.06782 12.6396C6.37621 12.2689 6.37621 11.731 6.06782 11.3604L3.34255 8.08502C2.74804 7.37051 3.36478 6.30229 4.28081 6.4599L8.48 7.18237C8.95518 7.26412 9.42103 6.99516 9.58782 6.54276L11.0617 2.54493Z" fill="#E4E2E4"/>
<path fill-rule="evenodd" clip-rule="evenodd" d="M13.4739 6.88868L12 2.89085L10.5261 6.88868C10.1925 7.79347 9.2608 8.3314 8.31044 8.16789L4.11125 7.44542L6.83652 10.7208C7.45331 11.4621 7.45331 12.5379 6.83652 13.2792L4.11125 16.5546L8.31044 15.8321C9.2608 15.6686 10.1925 16.2065 10.5261 17.1113L12 21.1091L13.4739 17.1113C13.8075 16.2065 14.7392 15.6686 15.6896 15.8321L19.8887 16.5546L17.1635 13.2792C16.5467 12.5379 16.5467 11.4621 17.1635 10.7208L19.8887 7.44542L15.6896 8.16789C14.7392 8.3314 13.8075 7.79348 13.4739 6.88868ZM12.9383 2.54493C12.6167 1.67282 11.3833 1.67282 11.0617 2.54493L9.58782 6.54277C9.42103 6.99516 8.95518 7.26412 8.48 7.18237L4.28081 6.4599C3.36478 6.30229 2.74804 7.37051 3.34255 8.08502L6.06782 11.3604C6.37621 11.731 6.37621 12.2689 6.06782 12.6396L3.34255 15.915C2.74804 16.6295 3.36478 17.6977 4.28081 17.5401L8.48 16.8176C8.95518 16.7359 9.42103 17.0048 9.58782 17.4572L11.0617 21.455C11.3833 22.3272 12.6167 22.3272 12.9383 21.455L14.4122 17.4572C14.579 17.0048 15.0448 16.7359 15.52 16.8176L19.7192 17.5401C20.6352 17.6977 21.252 16.6295 20.6575 15.915L17.9322 12.6396C17.6238 12.2689 17.6238 11.731 17.9322 11.3604L20.6574 8.08502C21.252 7.37051 20.6352 6.30229 19.7192 6.4599L15.52 7.18237C15.0448 7.26412 14.579 6.99516 14.4122 6.54277L12.9383 2.54493Z" fill="#6F6E77"/>
</svg>
