<svg width="24" height="24" viewBox="0 0 24 24" fill="none" xmlns="http://www.w3.org/2000/svg">
<path fill-rule="evenodd" clip-rule="evenodd" d="M9 19C12.866 19 16 15.866 16 12C16 8.13401 12.866 5 9 5C5.13401 5 2 8.13401 2 12C2 15.866 5.13401 19 9 19ZM12 16C14.2091 16 16 14.2091 16 12C16 9.79086 14.2091 8 12 8C9.79086 8 8 9.79086 8 12C8 14.2091 9.79086 16 12 16Z" fill="#E4E2E4"/>
<path fill-rule="evenodd" clip-rule="evenodd" d="M12 2C6.47715 2 2 6.47715 2 12C2 17.5228 6.47715 22 12 22C17.5228 22 22 17.5228 22 12C22 6.47715 17.5228 2 12 2ZM12 21C16.9706 21 21 16.9706 21 12C21 7.02944 16.9706 3 12 3C9.26707 3 6.81864 4.21813 5.16805 6.14105C6.26893 5.41957 7.58547 5 9 5C12.866 5 16 8.13401 16 12C16 15.866 12.866 19 9 19C7.58547 19 6.26892 18.5804 5.16804 17.8589C6.81863 19.7819 9.26706 21 12 21ZM13.833 8.44377C13.2839 8.16016 12.6606 8 12 8C9.79086 8 8 9.79086 8 12C8 14.2091 9.79086 16 12 16C12.6606 16 13.2839 15.8398 13.833 15.5562C12.7405 17.0384 10.9826 18 9 18C5.68629 18 3 15.3137 3 12C3 8.68629 5.68629 6 9 6C10.9826 6 12.7405 6.96157 13.833 8.44377ZM15 12C15 13.6569 13.6569 15 12 15C10.3431 15 9 13.6569 9 12C9 10.3431 10.3431 9 12 9C13.6569 9 15 10.3431 15 12Z" fill="#6F6E77"/>
</svg>
