<svg width="24" height="24" viewBox="0 0 24 24" fill="none" xmlns="http://www.w3.org/2000/svg">
<rect width="24" height="24" fill="white"/>
<path fill-rule="evenodd" clip-rule="evenodd" d="M12 20C16.4183 20 20 16.4183 20 12C20 7.58176 16.4183 4.00004 12 4.00004C7.58172 4.00004 4 7.58176 4 12C4 16.4183 7.58172 20 12 20ZM12 13C12.5523 13 13 12.5523 13 12C13 11.4478 12.5523 11 12 11C11.4477 11 11 11.4478 11 12C11 12.5523 11.4477 13 12 13Z" fill="#E4E2E4"/>
<path fill-rule="evenodd" clip-rule="evenodd" d="M12 14C13.1046 14 14 13.1045 14 12C14 10.8954 13.1046 9.99998 12 9.99998C10.8954 9.99998 10 10.8954 10 12C10 13.1045 10.8954 14 12 14ZM12 13C12.5523 13 13 12.5523 13 12C13 11.4477 12.5523 11 12 11C11.4477 11 11 11.4477 11 12C11 12.5523 11.4477 13 12 13Z" fill="#6F6E77"/>
<path fill-rule="evenodd" clip-rule="evenodd" d="M12 20C16.4183 20 20 16.4183 20 12C20 7.5817 16.4183 3.99997 12 3.99997C7.58172 3.99997 4 7.5817 4 12C4 16.4183 7.58172 20 12 20ZM19 12C19 15.866 15.866 19 12 19C8.13401 19 5 15.866 5 12C5 8.13398 8.13401 4.99997 12 4.99997C15.866 4.99997 19 8.13398 19 12Z" fill="#6F6E77"/>
<path fill-rule="evenodd" clip-rule="evenodd" d="M2 22V1.99997H22V22H2ZM3 2.99997H21V21H3V2.99997Z" fill="#6F6E77"/>
</svg>
